<svg width="843" height="233" viewBox="0 0 843 233" fill="none" xmlns="http://www.w3.org/2000/svg">
<path d="M785.103 179.729C772.568 179.729 761.253 177.043 751.16 171.67C741.229 166.135 733.415 158.565 727.717 148.96C722.019 139.192 719.17 127.878 719.17 115.017C719.17 103.458 721.775 92.8762 726.984 83.2711C732.357 73.5032 739.764 65.7703 749.206 60.0723C758.649 54.2116 769.556 51.2812 781.929 51.2812C794.79 51.2812 805.697 54.1302 814.651 59.8281C823.605 65.3633 830.443 72.7706 835.164 82.0501C840.048 91.3296 842.49 101.504 842.49 112.575V122.831H746.764L752.137 114.284C751.811 121.122 752.951 127.227 755.555 132.599C758.323 137.971 762.149 142.204 767.033 145.297C772.079 148.228 778.022 149.693 784.859 149.693C791.371 149.693 797.232 148.146 802.441 145.053C807.814 141.96 811.884 137.646 814.651 132.111L841.269 145.541C836.059 156.449 828.57 164.914 818.802 170.938C809.197 176.799 797.964 179.729 785.103 179.729ZM754.09 103.539H808.058C807.569 99.3067 806.104 95.5623 803.662 92.3064C801.383 88.8876 798.371 86.2828 794.627 84.4921C790.883 82.5385 786.569 81.5617 781.685 81.5617C776.638 81.5617 772.161 82.5385 768.254 84.4921C764.509 86.4456 761.416 89.1318 758.974 92.5506C756.695 95.8065 755.067 99.4695 754.09 103.539Z" fill="white"/>
<path d="M679.156 176.554H644.48V107.202C644.48 96.7833 646.434 87.5038 650.341 79.3639C654.248 71.0612 660.19 64.5493 668.167 59.8281C676.144 54.9442 686.075 52.5022 697.959 52.5022C702.029 52.5022 706.018 52.9092 709.925 53.7232C713.832 54.3744 717.332 55.3512 720.425 56.6535V90.3528C717.495 88.562 714.32 87.2596 710.902 86.4456C707.483 85.6316 704.227 85.2246 701.134 85.2246C694.296 85.2246 688.924 87.341 685.017 91.5737C681.11 95.6437 679.156 101.26 679.156 108.423V176.554Z" fill="white"/>
<path d="M567.466 146.274C573.49 146.274 578.455 144.727 582.362 141.634C586.432 138.378 589.444 134.145 591.398 128.936C593.351 123.564 594.328 117.784 594.328 111.598V55.6768H629.004V115.749C629.004 127.634 626.644 138.46 621.922 148.227C617.364 157.833 610.527 165.484 601.41 171.182C592.293 176.88 580.979 179.729 567.466 179.729C554.117 179.729 542.884 176.88 533.767 171.182C524.651 165.484 517.732 157.751 513.01 147.983C508.452 138.215 506.173 127.471 506.173 115.749V55.6768H540.849V111.842C540.849 117.866 541.826 123.564 543.779 128.936C545.733 134.145 548.663 138.378 552.57 141.634C556.64 144.727 561.606 146.274 567.466 146.274Z" fill="white"/>
<path d="M470.041 179.973C458.483 179.973 448.796 177.857 440.982 173.624C433.33 169.228 427.551 163.205 423.644 155.553C419.737 147.739 417.783 138.785 417.783 128.692V24.908H452.459V127.715C452.459 134.39 454.331 139.599 458.076 143.344C461.82 147.088 466.867 148.96 473.216 148.96C476.798 148.96 480.623 148.472 484.693 147.495C488.763 146.518 492.263 145.053 495.194 143.099V174.112C492.101 175.903 488.193 177.287 483.472 178.264C478.914 179.403 474.437 179.973 470.041 179.973ZM495.194 84.9805H395.561V55.6768H495.194V84.9805Z" fill="white"/>
<path d="M300.603 232.231H265.927V115.749C265.927 103.539 268.776 92.7134 274.474 83.2711C280.172 73.666 287.905 66.0959 297.673 60.5608C307.603 55.0256 318.836 52.2581 331.372 52.2581C343.907 52.2581 355.059 55.1884 364.827 61.0492C374.757 66.7471 382.572 74.3986 388.27 84.0037C393.968 93.6088 396.817 104.191 396.817 115.749C396.817 128.285 394.13 139.436 388.758 149.204C383.386 158.809 375.897 166.38 366.292 171.915C356.85 177.287 345.861 179.973 333.325 179.973C324.534 179.973 316.394 178.02 308.906 174.112C301.417 170.042 295.312 164.833 290.591 158.484C286.032 151.972 283.753 144.972 283.753 137.483L300.603 140.413V232.231ZM331.372 147.251C337.395 147.251 342.686 145.867 347.245 143.099C351.966 140.169 355.629 136.343 358.233 131.622C360.838 126.901 362.141 121.691 362.141 115.994C362.141 110.296 360.838 105.086 358.233 100.365C355.629 95.6437 351.966 91.8994 347.245 89.1318C342.686 86.3643 337.395 84.9805 331.372 84.9805C325.511 84.9805 320.22 86.3643 315.499 89.1318C310.941 91.8994 307.278 95.6437 304.51 100.365C301.905 105.086 300.603 110.296 300.603 115.994C300.603 121.691 301.905 126.901 304.51 131.622C307.278 136.343 310.941 140.169 315.499 143.099C320.22 145.867 325.511 147.251 331.372 147.251Z" fill="white"/>
<path d="M177.806 179.729C166.085 179.729 155.747 176.88 146.793 171.182C137.839 165.321 130.757 157.589 125.548 147.983C120.501 138.216 117.978 127.471 117.978 115.749C117.978 104.191 120.827 93.6088 126.525 84.0037C132.385 74.2359 140.2 66.503 149.968 60.805C159.898 54.9443 171.05 52.0139 183.423 52.0139C195.958 52.0139 207.191 54.8629 217.122 60.5608C227.053 66.096 234.867 73.6661 240.565 83.2712C246.263 92.7134 249.112 103.54 249.112 115.749V176.554H216.145V132.843L226.646 129.913C226.646 139.355 224.611 147.902 220.541 155.554C216.471 163.042 210.854 168.984 203.691 173.38C196.528 177.613 187.9 179.729 177.806 179.729ZM183.423 147.251C189.446 147.251 194.737 145.867 199.295 143.099C204.017 140.169 207.68 136.343 210.284 131.622C213.052 126.901 214.436 121.692 214.436 115.994C214.436 110.296 213.052 105.086 210.284 100.365C207.68 95.6438 204.017 91.8995 199.295 89.1319C194.737 86.2015 189.446 84.7363 183.423 84.7363C177.562 84.7363 172.271 86.2015 167.55 89.1319C162.991 91.8995 159.328 95.6438 156.561 100.365C153.956 105.086 152.654 110.296 152.654 115.994C152.654 121.692 153.956 126.901 156.561 131.622C159.328 136.343 162.991 140.169 167.55 143.099C172.271 145.867 177.562 147.251 183.423 147.251Z" fill="white"/>
<path d="M125.029 176.555H83.7596L50.3046 135.529C45.4207 129.343 42.9787 122.668 42.9787 115.505C42.9787 108.505 45.5021 101.993 50.5488 95.9695L84.0038 55.677H125.273L73.9917 116.726C73.9917 116.563 73.9917 116.401 73.9917 116.238C74.1545 116.075 74.2359 115.831 74.2359 115.505C74.2359 115.342 74.1545 115.18 73.9917 115.017C73.9917 114.691 73.9917 114.528 73.9917 114.528L125.029 176.555ZM34.676 176.555H0V0H34.676V176.555ZM29.0595 128.448V102.563H57.1421V128.448H29.0595Z" fill="white"/>
</svg>
